<svg xmlns="http://www.w3.org/2000/svg" width="920" height="560" viewBox="0 0 920 560" role="img">
  <rect width="920" height="560" fill="#ffffff"/>
  <style>
    text { font-family: Arial, Helvetica, sans-serif; fill: #1f2933; }
    .title { font-size: 22px; font-weight: 700; }
    .axis { stroke: #243b53; stroke-width: 1.5; }
    .grid { stroke: #d9e2ec; stroke-width: 1; }
    .tick { font-size: 12px; fill: #52606d; }
    .legend { font-size: 13px; font-weight: 700; }
    .axis-label { font-size: 14px; font-weight: 700; }
    .bar-label { font-size: 11px; font-weight: 700; }
  </style>
  <text x="90" y="26" class="title">Tone Accuracy by Style-Controlled Experiment</text>
  <rect x="90" y="38" width="14" height="14" fill="#2f80ed" rx="2"/><text x="112" y="50" class="legend">High</text><rect x="205" y="38" width="14" height="14" fill="#d64545" rx="2"/><text x="227" y="50" class="legend">Low</text><rect x="320" y="38" width="14" height="14" fill="#2f9e44" rx="2"/><text x="342" y="50" class="legend">Mid</text>
  <line x1="90" y1="420" x2="850" y2="420" class="axis"/>
  <line x1="90" y1="70" x2="90" y2="420" class="axis"/>
  <text x="24" y="290" class="axis-label" transform="rotate(-90 24 290)">Accuracy (%)</text>
  <line x1="90" y1="420.0" x2="850" y2="420.0" class="grid"/><text x="78" y="424.0" text-anchor="end" class="tick">0</text><line x1="90" y1="350.0" x2="850" y2="350.0" class="grid"/><text x="78" y="354.0" text-anchor="end" class="tick">20</text><line x1="90" y1="280.0" x2="850" y2="280.0" class="grid"/><text x="78" y="284.0" text-anchor="end" class="tick">40</text><line x1="90" y1="210.0" x2="850" y2="210.0" class="grid"/><text x="78" y="214.0" text-anchor="end" class="tick">60</text><line x1="90" y1="140.0" x2="850" y2="140.0" class="grid"/><text x="78" y="144.0" text-anchor="end" class="tick">80</text><line x1="90" y1="70.0" x2="850" y2="70.0" class="grid"/><text x="78" y="74.0" text-anchor="end" class="tick">100</text><rect x="126.0" y="152.4" width="34" height="267.6" fill="#2f80ed" rx="2"/><text x="143.0" y="146.4" text-anchor="middle" class="bar-label">76.4</text><rect x="168.0" y="172.8" width="34" height="247.2" fill="#d64545" rx="2"/><text x="185.0" y="166.8" text-anchor="middle" class="bar-label">70.6</text><rect x="210.0" y="314.1" width="34" height="105.9" fill="#2f9e44" rx="2"/><text x="227.0" y="308.1" text-anchor="middle" class="bar-label">30.3</text><text x="185.0" y="448" text-anchor="middle" class="tick">E3</text><text x="185.0" y="464" text-anchor="middle" class="tick">naturalistic</text><text x="185.0" y="480" text-anchor="middle" class="tick">transfer=no</text><rect x="316.0" y="156.4" width="34" height="263.6" fill="#2f80ed" rx="2"/><text x="333.0" y="150.4" text-anchor="middle" class="bar-label">75.3</text><rect x="358.0" y="149.9" width="34" height="270.1" fill="#d64545" rx="2"/><text x="375.0" y="143.9" text-anchor="middle" class="bar-label">77.2</text><rect x="400.0" y="231.2" width="34" height="188.8" fill="#2f9e44" rx="2"/><text x="417.0" y="225.2" text-anchor="middle" class="bar-label">53.9</text><text x="375.0" y="448" text-anchor="middle" class="tick">E5</text><text x="375.0" y="464" text-anchor="middle" class="tick">constrained</text><text x="375.0" y="480" text-anchor="middle" class="tick">transfer=no</text><rect x="506.0" y="151.7" width="34" height="268.3" fill="#2f80ed" rx="2"/><text x="523.0" y="145.7" text-anchor="middle" class="bar-label">76.7</text><rect x="548.0" y="159.2" width="34" height="260.8" fill="#d64545" rx="2"/><text x="565.0" y="153.2" text-anchor="middle" class="bar-label">74.5</text><rect x="590.0" y="334.2" width="34" height="85.8" fill="#2f9e44" rx="2"/><text x="607.0" y="328.2" text-anchor="middle" class="bar-label">24.5</text><text x="565.0" y="448" text-anchor="middle" class="tick">E8</text><text x="565.0" y="464" text-anchor="middle" class="tick">naturalistic</text><text x="565.0" y="480" text-anchor="middle" class="tick">transfer=yes</text><rect x="696.0" y="162.3" width="34" height="257.7" fill="#2f80ed" rx="2"/><text x="713.0" y="156.3" text-anchor="middle" class="bar-label">73.6</text><rect x="738.0" y="153.7" width="34" height="266.3" fill="#d64545" rx="2"/><text x="755.0" y="147.7" text-anchor="middle" class="bar-label">76.1</text><rect x="780.0" y="225.6" width="34" height="194.4" fill="#2f9e44" rx="2"/><text x="797.0" y="219.6" text-anchor="middle" class="bar-label">55.6</text><text x="755.0" y="448" text-anchor="middle" class="tick">E10</text><text x="755.0" y="464" text-anchor="middle" class="tick">constrained</text><text x="755.0" y="480" text-anchor="middle" class="tick">transfer=yes</text>
</svg>
