<svg xmlns="http://www.w3.org/2000/svg" width="1100" height="640" viewBox="0 0 1100 640" role="img">
  <rect width="1100" height="640" fill="#ffffff"/>
  <style>
    text { font-family: Arial, Helvetica, sans-serif; fill: #1f2933; }
    .title { font-size: 22px; font-weight: 700; }
    .axis { stroke: #243b53; stroke-width: 1.5; }
    .grid { stroke: #d9e2ec; stroke-width: 1; }
    .tick { font-size: 12px; fill: #52606d; }
    .legend { font-size: 12px; font-weight: 700; }
    .axis-label { font-size: 14px; font-weight: 700; }
  </style>
  <text x="78" y="26" class="title">Per-Vowel Accuracy by Style-Controlled Experiment</text>
  <rect x="78" y="40" width="14" height="14" fill="#2563eb" rx="2"/><text x="99" y="52" class="legend">E3 naturalistic</text><rect x="190" y="40" width="14" height="14" fill="#16a34a" rx="2"/><text x="211" y="52" class="legend">E5 constrained</text><rect x="302" y="40" width="14" height="14" fill="#dc2626" rx="2"/><text x="323" y="52" class="legend">E8 naturalistic</text><rect x="414" y="40" width="14" height="14" fill="#7c3aed" rx="2"/><text x="435" y="52" class="legend">E10 constrained</text>
  <line x1="78" y1="472" x2="1038" y2="472" class="axis"/>
  <line x1="78" y1="72" x2="78" y2="472" class="axis"/>
  <text x="22" y="312" class="axis-label" transform="rotate(-90 22 312)">Accuracy (%)</text>
  <line x1="78" y1="472.0" x2="1038" y2="472.0" class="grid"/><text x="66" y="476.0" text-anchor="end" class="tick">0</text><line x1="78" y1="392.0" x2="1038" y2="392.0" class="grid"/><text x="66" y="396.0" text-anchor="end" class="tick">20</text><line x1="78" y1="312.0" x2="1038" y2="312.0" class="grid"/><text x="66" y="316.0" text-anchor="end" class="tick">40</text><line x1="78" y1="232.0" x2="1038" y2="232.0" class="grid"/><text x="66" y="236.0" text-anchor="end" class="tick">60</text><line x1="78" y1="152.0" x2="1038" y2="152.0" class="grid"/><text x="66" y="156.0" text-anchor="end" class="tick">80</text><line x1="78" y1="72.0" x2="1038" y2="72.0" class="grid"/><text x="66" y="76.0" text-anchor="end" class="tick">100</text><rect x="87.5" y="158.7" width="13" height="313.3" fill="#2563eb" rx="2"/><rect x="103.5" y="135.1" width="13" height="336.9" fill="#16a34a" rx="2"/><rect x="119.5" y="160.0" width="13" height="312.0" fill="#dc2626" rx="2"/><rect x="135.5" y="130.3" width="13" height="341.7" fill="#7c3aed" rx="2"/><text x="118.0" y="500" text-anchor="middle" class="tick">a</text><rect x="167.5" y="237.0" width="13" height="235.0" fill="#2563eb" rx="2"/><rect x="183.5" y="153.1" width="13" height="318.9" fill="#16a34a" rx="2"/><rect x="199.5" y="240.9" width="13" height="231.1" fill="#dc2626" rx="2"/><rect x="215.5" y="150.3" width="13" height="321.7" fill="#7c3aed" rx="2"/><text x="198.0" y="500" text-anchor="middle" class="tick">e</text><rect x="263.5" y="226.5" width="13" height="245.5" fill="#16a34a" rx="2"/><rect x="295.5" y="217.5" width="13" height="254.5" fill="#7c3aed" rx="2"/><text x="278.0" y="500" text-anchor="middle" class="tick">ẹ</text><rect x="327.5" y="225.2" width="13" height="246.8" fill="#2563eb" rx="2"/><rect x="343.5" y="159.1" width="13" height="312.9" fill="#16a34a" rx="2"/><rect x="359.5" y="225.3" width="13" height="246.7" fill="#dc2626" rx="2"/><rect x="375.5" y="172.0" width="13" height="300.0" fill="#7c3aed" rx="2"/><text x="358.0" y="500" text-anchor="middle" class="tick">i</text><rect x="407.5" y="238.0" width="13" height="234.0" fill="#2563eb" rx="2"/><rect x="423.5" y="177.8" width="13" height="294.2" fill="#16a34a" rx="2"/><rect x="439.5" y="240.1" width="13" height="231.9" fill="#dc2626" rx="2"/><rect x="455.5" y="175.7" width="13" height="296.3" fill="#7c3aed" rx="2"/><text x="438.0" y="500" text-anchor="middle" class="tick">o</text><rect x="503.5" y="329.1" width="13" height="142.9" fill="#16a34a" rx="2"/><rect x="535.5" y="386.3" width="13" height="85.7" fill="#7c3aed" rx="2"/><text x="518.0" y="500" text-anchor="middle" class="tick">ọ</text><rect x="567.5" y="290.2" width="13" height="181.8" fill="#2563eb" rx="2"/><rect x="583.5" y="180.1" width="13" height="291.9" fill="#16a34a" rx="2"/><rect x="599.5" y="299.5" width="13" height="172.5" fill="#dc2626" rx="2"/><rect x="615.5" y="193.6" width="13" height="278.4" fill="#7c3aed" rx="2"/><text x="598.0" y="500" text-anchor="middle" class="tick">u</text><rect x="647.5" y="327.2" width="13" height="144.8" fill="#2563eb" rx="2"/><rect x="663.5" y="211.5" width="13" height="260.5" fill="#16a34a" rx="2"/><rect x="679.5" y="345.9" width="13" height="126.1" fill="#dc2626" rx="2"/><rect x="695.5" y="174.3" width="13" height="297.7" fill="#7c3aed" rx="2"/><text x="678.0" y="500" text-anchor="middle" class="tick">an</text><rect x="743.5" y="205.3" width="13" height="266.7" fill="#16a34a" rx="2"/><rect x="775.5" y="160.9" width="13" height="311.1" fill="#7c3aed" rx="2"/><text x="758.0" y="500" text-anchor="middle" class="tick">ẹn</text><rect x="823.5" y="338.7" width="13" height="133.3" fill="#16a34a" rx="2"/><rect x="855.5" y="338.7" width="13" height="133.3" fill="#7c3aed" rx="2"/><text x="838.0" y="500" text-anchor="middle" class="tick">ọn</text><rect x="887.5" y="315.5" width="13" height="156.5" fill="#2563eb" rx="2"/><rect x="903.5" y="344.7" width="13" height="127.3" fill="#16a34a" rx="2"/><rect x="919.5" y="340.3" width="13" height="131.7" fill="#dc2626" rx="2"/><rect x="935.5" y="290.2" width="13" height="181.8" fill="#7c3aed" rx="2"/><text x="918.0" y="500" text-anchor="middle" class="tick">un</text><rect x="967.5" y="356.2" width="13" height="115.8" fill="#2563eb" rx="2"/><rect x="983.5" y="205.3" width="13" height="266.7" fill="#16a34a" rx="2"/><rect x="999.5" y="344.7" width="13" height="127.3" fill="#dc2626" rx="2"/><rect x="1015.5" y="179.9" width="13" height="292.1" fill="#7c3aed" rx="2"/><text x="998.0" y="500" text-anchor="middle" class="tick">in</text>
</svg>
